<svg width="9307" height="2588" viewBox="0 0 9307 2588" fill="none" xmlns="http://www.w3.org/2000/svg">
<g filter="url(#filter0_d)">
<path d="M2087.28 1692V1163.58H2193.72V1374.19H2223.16V1478.37H2193.72V1692H2087.28ZM2264.68 1478.37V1374.19H2294.12V1163.58H2400.55V1692H2294.12V1478.37H2264.68ZM2454.91 1546.31V1163.58H2561.34V1546.31C2561.85 1566.94 2573.42 1580.53 2596.07 1587.07C2599.59 1588.08 2602.11 1588.58 2603.62 1588.58V1695.77C2574.43 1695.77 2545.24 1685.46 2516.05 1664.82C2475.79 1635.13 2455.41 1595.63 2454.91 1546.31ZM2644.38 1695.77V1588.58C2653.44 1588.58 2663 1584.3 2673.07 1575.75C2681.62 1567.7 2686.15 1557.88 2686.65 1546.31V1163.58H2792.34V1546.31C2792.34 1603.18 2767.18 1645.7 2716.85 1673.88C2691.69 1688.48 2667.53 1695.77 2644.38 1695.77ZM2848.95 1692V1320.6H2854.99L2955.39 1482.14V1692H2848.95ZM2848.95 1233.03V1163.58H2935.77L3184.88 1565.18V1692H3134.3L2848.95 1233.03ZM3078.44 1316.07V1163.58H3184.88V1477.61H3178.84L3078.44 1316.07ZM3227.91 1267.76V1163.58H3554.77V1267.76H3444.56V1692H3338.12V1267.76H3227.91ZM3766.89 1432.32C3766.89 1394.07 3781.74 1363.37 3811.43 1340.22C3832.06 1325.13 3854.96 1317.58 3880.12 1317.58C3918.37 1317.58 3948.57 1332.93 3970.71 1363.63C3985.81 1383.76 3993.36 1406.65 3993.36 1432.32C3993.36 1470.57 3978.26 1500.76 3948.06 1522.91C3928.44 1538 3905.79 1545.55 3880.12 1545.55C3841.88 1545.55 3811.68 1530.46 3789.54 1500.26C3774.44 1480.13 3766.89 1457.48 3766.89 1432.32ZM4209.25 1572.73L4305.12 1538.76C4305.12 1551.34 4308.65 1562.41 4315.69 1571.97C4322.74 1581.54 4329.78 1587.83 4336.83 1590.85L4347.4 1596.13V1694.26C4304.62 1694.26 4268.13 1675.64 4237.94 1638.4C4219.32 1614.75 4209.76 1592.86 4209.25 1572.73ZM4215.29 1308.52C4215.29 1253.16 4238.95 1211.64 4286.25 1183.96C4307.89 1170.88 4328.27 1164.09 4347.4 1163.58V1263.23C4334.82 1266.75 4325.51 1275.81 4319.47 1290.4C4317.45 1294.93 4316.45 1299.71 4316.45 1304.75C4316.45 1325.38 4331.8 1342.99 4362.49 1357.59C4369.04 1360.61 4379.61 1365.14 4394.2 1371.17C4418.36 1380.74 4435.47 1388.54 4445.53 1394.58C4486.3 1418.73 4513.47 1443.39 4527.06 1468.55C4537.12 1488.18 4542.16 1510.07 4542.16 1534.23C4542.16 1580.03 4524.79 1619.28 4490.07 1651.99C4460.38 1680.17 4426.66 1694.26 4388.92 1694.26V1596.13C4408.54 1593.61 4422.38 1583.3 4430.43 1565.18C4433.96 1557.13 4435.72 1548.32 4435.72 1538.76C4435.72 1513.09 4416.59 1491.96 4378.35 1475.35C4371.3 1472.33 4360.23 1468.05 4345.13 1462.52C4327.52 1456.48 4315.19 1451.7 4308.14 1448.17C4264.86 1427.54 4237.18 1400.87 4225.11 1368.16C4218.56 1350.54 4215.29 1330.66 4215.29 1308.52ZM4388.92 1263.23V1163.58C4431.19 1163.58 4466.67 1181.45 4495.35 1217.18C4511.96 1238.32 4520.52 1257.44 4521.02 1274.55L4422.89 1307.01C4422.89 1285.87 4412.57 1271.53 4391.94 1263.98C4389.92 1263.48 4388.92 1263.23 4388.92 1263.23ZM4587.45 1692V1163.58H4693.89V1374.19H4723.33V1478.37H4693.89V1692H4587.45ZM4764.85 1478.37V1374.19H4794.29V1163.58H4900.73V1692H4794.29V1478.37H4764.85ZM4959.61 1544.8V1296.44C4959.61 1269.77 4970.93 1242.59 4993.58 1214.91C5023.77 1178.68 5062.02 1160.31 5108.32 1159.81V1266.25C5087.69 1266.75 5074.1 1278.32 5067.56 1300.97C5066.55 1304.49 5066.05 1307.01 5066.05 1308.52V1544.8C5066.05 1565.43 5077.37 1579.52 5100.02 1587.07C5103.54 1588.08 5106.05 1588.58 5107.56 1588.58V1695.77C5078.88 1695.77 5050.19 1685.46 5021.51 1664.82C4980.74 1634.63 4960.11 1594.62 4959.61 1544.8ZM5149.08 1695.77V1588.58C5157.13 1588.58 5166.19 1584.3 5176.26 1575.75C5185.82 1567.19 5190.85 1556.88 5191.36 1544.8V1308.52C5191.36 1299.46 5187.08 1289.9 5178.52 1279.83C5170.47 1271.28 5160.66 1266.75 5149.08 1266.25V1159.81C5199.91 1159.81 5240.67 1181.7 5271.37 1225.48C5288.99 1250.65 5297.79 1274.3 5297.79 1296.44V1544.8C5297.79 1600.66 5272.88 1643.44 5223.06 1673.13C5196.89 1688.23 5172.23 1695.77 5149.08 1695.77ZM5355.17 1544.8V1296.44C5355.17 1269.77 5366.49 1242.59 5389.14 1214.91C5419.33 1178.68 5457.58 1160.31 5503.88 1159.81V1266.25C5483.24 1266.75 5469.66 1278.32 5463.11 1300.97C5462.11 1304.49 5461.6 1307.01 5461.6 1308.52V1544.8C5461.6 1565.43 5472.93 1579.52 5495.57 1587.07C5499.1 1588.08 5501.61 1588.58 5503.12 1588.58V1695.77C5474.44 1695.77 5445.75 1685.46 5417.07 1664.82C5376.3 1634.63 5355.67 1594.62 5355.17 1544.8ZM5544.64 1695.77V1588.58C5552.69 1588.58 5561.75 1584.3 5571.82 1575.75C5581.38 1567.19 5586.41 1556.88 5586.91 1544.8V1308.52C5586.91 1299.46 5582.64 1289.9 5574.08 1279.83C5566.03 1271.28 5556.22 1266.75 5544.64 1266.25V1159.81C5595.47 1159.81 5636.23 1181.7 5666.93 1225.48C5684.55 1250.65 5693.35 1274.3 5693.35 1296.44V1544.8C5693.35 1600.66 5668.44 1643.44 5618.62 1673.13C5592.45 1688.23 5567.79 1695.77 5544.64 1695.77ZM5733.36 1267.76V1163.58H6060.23V1267.76H5950.01V1692H5843.57V1267.76H5733.36ZM6272.35 1432.32C6272.35 1394.07 6287.19 1363.37 6316.89 1340.22C6337.52 1325.13 6360.42 1317.58 6385.58 1317.58C6423.83 1317.58 6454.02 1332.93 6476.17 1363.63C6491.26 1383.76 6498.81 1406.65 6498.81 1432.32C6498.81 1470.57 6483.72 1500.76 6453.52 1522.91C6433.89 1538 6411.25 1545.55 6385.58 1545.55C6347.33 1545.55 6317.14 1530.46 6294.99 1500.26C6279.9 1480.13 6272.35 1457.48 6272.35 1432.32ZM6731.32 1692V1163.58H6837.76V1586.32H7015.15V1692H6731.32ZM7058.18 1692V1163.58H7164.62V1692H7058.18ZM7202.36 1163.58H7311.07L7431.09 1572.73L7391.08 1692H7355.6L7202.36 1163.58ZM7396.37 1303.99L7437.89 1163.58H7546.59C7546.09 1165.09 7515.14 1268.26 7453.74 1473.08H7446.19L7396.37 1303.99ZM7584.33 1692V1163.58H7859.11V1269.27H7690.77V1376.46H7788.15V1482.9H7690.77V1585.56H7859.11V1692H7584.33Z" fill="black"/>
</g>
<path d="M2103 1899L7905 1899" stroke="black" stroke-width="50"/>
<path d="M49 1966.79L609.15 1016.34L863.141 1447.69M1734.4 2054L1251.29 1221.83L768.447 2023.19L984.143 1653.18L863.141 1447.69M863.141 1447.69L1251.29 840L1782 1702.98" stroke="black" stroke-width="100"/>
<defs>
<filter id="filter0_d" x="2062.28" y="1138.81" width="5821.83" height="585.967" filterUnits="userSpaceOnUse" color-interpolation-filters="sRGB">
<feFlood flood-opacity="0" result="BackgroundImageFix"/>
<feColorMatrix in="SourceAlpha" type="matrix" values="0 0 0 0 0 0 0 0 0 0 0 0 0 0 0 0 0 0 127 0"/>
<feOffset dy="4"/>
<feGaussianBlur stdDeviation="12.5"/>
<feColorMatrix type="matrix" values="0 0 0 0 0 0 0 0 0 0 0 0 0 0 0 0 0 0 0.25 0"/>
<feBlend mode="normal" in2="BackgroundImageFix" result="effect1_dropShadow"/>
<feBlend mode="normal" in="SourceGraphic" in2="effect1_dropShadow" result="shape"/>
</filter>
</defs>
</svg>
